<svg width="160" height="157" viewBox="0 0 160 157" fill="none" xmlns="http://www.w3.org/2000/svg">
<path d="M79.9016 40.2964V78.5L91.4394 100.641M153.402 78.5C153.402 88.0208 151.501 97.4484 147.807 106.245C144.113 115.041 138.699 123.033 131.874 129.765C125.049 136.497 116.946 141.838 108.029 145.481C99.1114 149.125 89.5538 151 79.9016 151C70.2495 151 60.6918 149.125 51.7744 145.481C42.857 141.838 34.7544 136.497 27.9293 129.765C21.1042 123.033 15.6902 115.041 11.9965 106.245C8.30277 97.4484 6.40164 88.0208 6.40164 78.5C6.40164 59.2718 14.1454 40.8311 27.9293 27.2348C41.7132 13.6384 60.4082 6 79.9016 6C99.3951 6 118.09 13.6384 131.874 27.2348C145.658 40.8311 153.402 59.2718 153.402 78.5Z" stroke="#C653D0" stroke-width="12" stroke-linecap="round" stroke-linejoin="round"/>
</svg>
