<svg width="165" height="163" viewBox="0 0 165 163" fill="none" xmlns="http://www.w3.org/2000/svg">
<path d="M82.5841 47.7358C68.5687 47.7358 57.2091 55.2065 57.2091 64.4301C57.2091 73.6537 68.5687 81.1244 82.5841 81.1244C96.5996 81.1244 107.959 88.5951 107.959 97.8188C107.959 107.042 96.5996 114.513 82.5841 114.513V47.7358ZM82.5841 47.7358C91.9729 47.7358 100.177 51.0914 104.567 56.083L82.5841 47.7358ZM82.5841 47.7358V39.3886V47.7358ZM82.5841 47.7358V114.513V47.7358ZM82.5841 114.513V122.86V114.513ZM82.5841 114.513C73.1954 114.513 64.9908 111.158 60.6009 106.166L82.5841 114.513ZM158.709 81.1244C158.709 90.9899 156.74 100.759 152.914 109.873C149.089 118.988 143.481 127.269 136.413 134.245C129.344 141.221 120.952 146.755 111.716 150.53C102.48 154.306 92.581 156.249 82.5841 156.249C72.5873 156.249 62.6883 154.306 53.4524 150.53C44.2164 146.755 35.8245 141.221 28.7556 134.245C21.6868 127.269 16.0794 118.988 12.2538 109.873C8.42817 100.759 6.45914 90.9899 6.45914 81.1244C6.45914 61.2002 14.4794 42.092 28.7556 28.0034C43.0318 13.9149 62.3945 6 82.5841 6C102.774 6 122.136 13.9149 136.413 28.0034C150.689 42.092 158.709 61.2002 158.709 81.1244Z" stroke="#FF008A" stroke-width="12" stroke-linecap="round" stroke-linejoin="round"/>
</svg>
